<svg xmlns="http://www.w3.org/2000/svg" viewBox="0 0 48 48">
  <defs>
    <clipPath id="c"><circle cx="24" cy="24" r="22"/></clipPath>
  </defs>
  <g clip-path="url(#c)">
    <rect width="48" height="48" fill="#1d1712"/>
    <circle cx="24" cy="23" r="8" fill="#d9b25f"/>
    <g fill="#140e08" stroke="#140e08">
      <path d="M19.4 24.6 Q19.6 23.2 21 23.1 Q22 21 23 20.6 Q24 21 25 23.3 Q25.7 23.9 26.4 23.4 Q27.4 22.6 27.9 20.8 Q28.4 19.3 29.3 19.2 Q30 19.1 30.2 19.8 Q30.3 20.2 29.5 20.4 Q28.8 20.9 28 22.5 Q27.5 23.7 27.2 25 Q27 26.4 26 26.5 L20.4 26.6 Q19.6 26.6 19.4 26 Z"/>
      <g stroke-linecap="round" stroke-width="1.45">
        <line x1="21" y1="26.3" x2="20.4" y2="30.8"/>
        <line x1="22.7" y1="26.5" x2="22.9" y2="31"/>
        <line x1="25.4" y1="26.5" x2="25.2" y2="31"/>
        <line x1="27" y1="26.3" x2="27.6" y2="30.8"/>
      </g>
      <path d="M19.5 25.4 Q18.2 25.6 18.3 27" fill="none" stroke-width="1" stroke-linecap="round"/>
    </g>
    <path d="M-2 31 q11 -6 22 -1.5 t22 -1.5 l6 1 V50 H-2 Z" fill="#5b4a34"/>
    <path d="M-2 37 q14 -6 27 -1 t25 -2 V50 H-2 Z" fill="#3a2f21"/>
  </g>
  <circle cx="24" cy="24" r="22" fill="none" stroke="#d9b25f" stroke-width="1.4"/>
</svg>
